<?xml version="1.0" encoding="UTF-8" standalone="no"?><!DOCTYPE svg PUBLIC "-//W3C//DTD SVG 1.1//EN" "http://www.w3.org/Graphics/SVG/1.1/DTD/svg11.dtd"><svg width="100%" height="100%" viewBox="0 0 72 96" version="1.1" xmlns="http://www.w3.org/2000/svg" xmlns:xlink="http://www.w3.org/1999/xlink" xml:space="preserve" xmlns:serif="http://www.serif.com/" style="fill-rule:evenodd;clip-rule:evenodd;stroke-linejoin:round;stroke-miterlimit:2;"><path d="M40.147,21.242c-0.132,-0.006 -0.235,-0.119 -0.229,-0.251c0.006,-0.132 0.119,-0.235 0.251,-0.229c1.17,0.055 3.295,0.12 4.768,0.427c0.678,0.141 1.224,0.342 1.508,0.598c2.026,1.824 17.053,17.945 20.353,21.637c3.55,3.972 4.864,6.702 4.763,8.646c-0.097,1.87 -1.466,3.069 -3.511,3.961c-2.926,1.277 -7.253,1.942 -10.914,3.303c-1.348,0.501 -7.869,2.312 -9.113,2.56c-1.303,0.259 -7.078,1.714 -12.167,-2.107c-0.106,-0.08 -0.127,-0.23 -0.048,-0.336c0.08,-0.106 0.23,-0.127 0.336,-0.048c4.928,3.7 10.523,2.271 11.785,2.02c1.234,-0.245 7.703,-2.042 9.04,-2.539c3.653,-1.358 7.97,-2.019 10.89,-3.293c1.852,-0.808 3.136,-1.853 3.224,-3.546c0.098,-1.873 -1.221,-4.474 -4.641,-8.301c-3.294,-3.685 -18.293,-19.779 -20.316,-21.6c-0.241,-0.217 -0.711,-0.365 -1.285,-0.485c-1.45,-0.301 -3.542,-0.363 -4.693,-0.417Z" style="fill:#fff;"/><path d="M40.038,20.763c0.132,-0.005 0.244,0.097 0.25,0.23c0.005,0.132 -0.097,0.244 -0.23,0.25c-1.126,0.047 -1.681,0.361 -2.36,0.874c-1.086,0.821 -2.467,2.123 -6.64,3.672c-1.168,0.434 -3.061,1.611 -13.217,3.615c-4.19,0.826 -8.528,2.01 -11.047,3.713c-1.199,0.811 -1.982,1.733 -2.081,2.806c-0.1,1.082 0.495,2.293 1.975,3.675c4.194,3.916 5.691,5.273 9.726,10.775c3.313,4.518 6.578,6.137 8.492,6.478c0.465,0.083 0.845,0.09 1.119,0.041c0.142,-0.025 0.25,-0.06 0.313,-0.116c0.1,-0.087 0.252,-0.077 0.339,0.023c0.087,0.1 0.077,0.252 -0.023,0.339c-0.112,0.098 -0.295,0.182 -0.545,0.227c-0.315,0.056 -0.752,0.054 -1.287,-0.042c-1.977,-0.353 -5.371,-1.999 -8.795,-6.667c-4.011,-5.468 -5.498,-6.816 -9.667,-10.708c-1.629,-1.521 -2.236,-2.879 -2.126,-4.07c0.111,-1.199 0.951,-2.253 2.29,-3.16c2.559,-1.731 6.965,-2.947 11.223,-3.787c10.099,-1.992 11.982,-3.162 13.143,-3.594c4.097,-1.521 5.452,-2.799 6.518,-3.605c0.756,-0.571 1.375,-0.918 2.63,-0.97Z" style="fill:#fff;"/><path d="M39.693,26.215c-0.107,0.144 -0.255,0.243 -0.44,0.266c-0.13,0.016 -0.283,-0.005 -0.458,-0.093c-0.023,-0.012 -0.044,-0.027 -0.062,-0.045c-0.145,-0.145 -0.195,-0.337 -0.162,-0.549c0.037,-0.238 0.19,-0.51 0.392,-0.728c0.183,-0.197 0.404,-0.349 0.597,-0.407c0.188,-0.056 0.359,-0.033 0.49,0.065c0.085,0.063 0.159,0.161 0.201,0.309c0.043,0.152 0.054,0.375 0.002,0.686c-0.016,0.099 -0.072,0.198 -0.164,0.283c-0.096,0.088 -0.241,0.164 -0.395,0.214Zm0.062,-1.108l0.028,0.031c-0.005,-0.012 -0.011,-0.022 -0.02,-0.028c-0.002,-0.002 -0.005,-0.002 -0.008,-0.002Zm-0.347,0.544c-0.03,0.037 -0.054,0.071 -0.074,0.103c-0.008,0.012 -0.015,0.026 -0.021,0.04c0.015,0.001 0.03,0.002 0.043,0.001c0.008,-0 0.015,-0.001 0.023,-0.002c0.01,-0.03 0.017,-0.062 0.023,-0.093c0.003,-0.015 0.005,-0.032 0.007,-0.05Z" style="fill:#fff;"/><path d="M44.36,25.491c-0.081,0.018 -0.15,0.076 -0.177,0.159l-0.023,0.025c0,-0 -0.026,0.046 -0.026,0.046c-0.012,0.028 -0.008,0.011 -0.053,0.237c-0.095,0.22 -0.12,0.42 -0.103,0.591c-0.028,0.117 -0.032,0.136 -0.038,0.177c-0.014,0.084 0.018,0.165 0.077,0.218c0.007,0.012 0.016,0.023 0.025,0.034l0.058,0.108l0.05,0.054l0.064,0.044l0.073,0.03l0.075,0.014l0.141,-0.012c0.027,-0.006 0.051,-0.017 0.073,-0.031c0.148,-0.014 0.304,-0.105 0.385,-0.326c0.175,-0.19 0.254,-0.311 0.284,-0.44c0.029,-0.129 0.013,-0.273 -0.043,-0.507c-0.041,-0.171 -0.078,-0.276 -0.106,-0.331l-0.047,-0.072l-0.068,-0.06l-0.082,-0.031l-0.018,-0.041l-0.078,-0.074l-0.056,-0.025l-0.058,-0.01l-0.109,0.017l-0.081,0.047c-0.029,0.023 -0.074,0.074 -0.137,0.161Z" style="fill:#fff;"/><path d="M26.707,56.924c0.131,0.019 0.222,0.14 0.204,0.271c-0.019,0.131 -0.14,0.222 -0.271,0.204c-0.718,-0.102 -2.234,0.407 -2.964,0.99c-0.411,0.328 -0.76,0.676 -0.977,0.95c-0.066,0.084 -0.119,0.159 -0.156,0.225c-0.019,0.034 -0.037,0.059 -0.038,0.08c-0.052,0.8 0.383,1.396 0.968,1.854c0.953,0.746 2.302,1.136 2.884,1.382c0.122,0.052 0.179,0.193 0.127,0.315c-0.052,0.122 -0.193,0.179 -0.315,0.127c-0.605,-0.256 -2.002,-0.671 -2.993,-1.446c-0.711,-0.556 -1.215,-1.292 -1.151,-2.263c0.006,-0.096 0.064,-0.246 0.186,-0.423c0.216,-0.313 0.643,-0.76 1.164,-1.175c0.82,-0.654 2.526,-1.205 3.331,-1.09Z" style="fill:#fff;"/><path d="M35.87,59.891c-0.111,-0.072 -0.143,-0.221 -0.071,-0.332c0.072,-0.111 0.221,-0.143 0.332,-0.071c1.508,0.977 2.455,2.051 2.872,2.982c0.303,0.675 0.332,1.284 0.125,1.752c-0.213,0.481 -0.676,0.831 -1.399,0.947c-0.969,0.156 -2.448,-0.118 -4.408,-1.076c-0.119,-0.058 -0.168,-0.202 -0.11,-0.321c0.058,-0.119 0.202,-0.168 0.321,-0.11c1.835,0.897 3.213,1.18 4.121,1.034c0.528,-0.085 0.881,-0.317 1.037,-0.668c0.161,-0.364 0.112,-0.836 -0.124,-1.361c-0.39,-0.87 -1.286,-1.862 -2.695,-2.775Z" style="fill:#fff;"/><path d="M26.01,62.998c0.057,-0.12 0.2,-0.171 0.32,-0.114c0.12,0.057 0.171,0.2 0.114,0.32c-3.407,7.18 -4.287,12.928 -6.641,16.751c-1.563,2.539 -5.799,9.585 -10.001,12.998c14.174,-5.876 20.749,-22.815 21.97,-25.258c0.331,-0.662 0.55,-1.627 0.808,-2.427c0.188,-0.584 0.404,-1.083 0.677,-1.356c0.094,-0.094 0.246,-0.094 0.339,0c0.094,0.094 0.094,0.246 -0,0.339c-0.232,0.232 -0.399,0.666 -0.56,1.164c-0.265,0.822 -0.495,1.813 -0.835,2.494c-1.285,2.569 -8.459,20.974 -24.019,26.16c-0.117,0.039 -0.245,-0.017 -0.295,-0.13c-0.05,-0.113 -0.007,-0.245 0.1,-0.306c4.611,-2.635 9.669,-11.11 11.406,-13.931c2.347,-3.812 3.219,-9.546 6.616,-16.706Z" style="fill:#fff;"/><path d="M48.068,36.537c-0.131,-0.021 -0.22,-0.144 -0.2,-0.274c0.021,-0.131 0.144,-0.22 0.274,-0.2c0.206,0.033 0.394,0.185 0.526,0.477c0.143,0.317 0.232,0.828 0.258,1.481c0.117,2.892 -0.937,8.717 -2.859,12.455c-0.847,1.648 -1.872,2.891 -3.022,3.344c-0.123,0.049 -0.263,-0.012 -0.311,-0.135c-0.049,-0.123 0.012,-0.263 0.135,-0.311c1.247,-0.492 2.301,-2.011 3.16,-3.929c1.323,-2.955 2.155,-6.865 2.37,-9.649c0.091,-1.172 0.073,-2.141 -0.069,-2.746c-0.041,-0.175 -0.091,-0.315 -0.155,-0.415c-0.033,-0.051 -0.063,-0.091 -0.109,-0.099Z" style="fill:#fff;"/><path d="M28.981,32.866c0.127,-0.039 0.261,0.033 0.3,0.159c0.039,0.127 -0.033,0.261 -0.159,0.3c-0.468,0.143 -0.886,0.463 -1.262,0.911c-0.598,0.711 -1.086,1.739 -1.477,2.933c-0.996,3.041 -1.354,7.155 -1.17,10.019c0.077,1.201 0.246,2.178 0.511,2.75c0.074,0.16 0.153,0.286 0.244,0.365c0.055,0.048 0.113,0.076 0.177,0.069c0.132,-0.016 0.251,0.079 0.267,0.21c0.016,0.132 -0.079,0.251 -0.21,0.267c-0.277,0.033 -0.536,-0.101 -0.75,-0.415c-0.368,-0.542 -0.621,-1.713 -0.718,-3.215c-0.219,-3.405 0.319,-8.544 1.76,-11.658c0.646,-1.395 1.482,-2.387 2.488,-2.695Z" style="fill:#fff;"/></svg>