<?xml version="1.0" encoding="UTF-8" standalone="no"?>
<!DOCTYPE svg PUBLIC "-//W3C//DTD SVG 1.1//EN" "http://www.w3.org/Graphics/SVG/1.1/DTD/svg11.dtd">
<svg width="100%" height="100%" viewBox="0 0 300 400" version="1.1" xmlns="http://www.w3.org/2000/svg" xmlns:xlink="http://www.w3.org/1999/xlink" xml:space="preserve" xmlns:serif="http://www.serif.com/" style="fill-rule:evenodd;clip-rule:evenodd;stroke-linejoin:round;stroke-miterlimit:2;">
    <path d="M258.67,245.113C258.179,252.085 252.01,259.857 241.967,267.498C218.768,285.15 174.922,302.524 136.486,309.479C114.412,313.473 94.116,314.015 80.485,309.285C71.106,306.03 64.828,300.297 63.058,291.591C62.642,289.542 61.016,288.487 58.72,287.938C56.072,287.306 52.58,287.354 48.725,287.652C41.544,288.209 33.145,289.652 26.432,289.577C21.661,289.524 17.715,288.659 15.457,286.401C15.395,286.34 15.343,286.272 15.301,286.2C13.613,285.731 12.4,283.971 11.904,281.18C10.733,274.6 13.329,261.95 19.763,252.128C25.765,242.965 35.721,236.808 39.9,232.686C40.529,232.065 41.017,231.503 41.303,230.982C41.538,230.556 41.614,230.184 41.296,229.867C39.069,227.64 38.143,224.438 38.345,220.632C38.63,215.269 41.174,208.65 45.176,202.061C51.117,192.281 60.256,182.554 69.743,177.099C75.415,173.837 81.219,172.105 86.563,172.698C86.265,171.702 86.303,170.582 86.655,169.371C87.199,167.499 88.541,165.375 90.511,163.215C95.787,157.429 105.622,151.266 115.628,148.728C121.972,147.118 128.38,146.972 133.772,149.209C134.279,147.809 135.223,146.539 136.545,145.409C138.892,143.403 142.473,141.824 146.776,140.69C158.166,137.687 174.681,137.73 185.863,140.324C190.822,141.475 194.747,143.155 196.826,145.235C197.459,145.867 199.991,146.979 203.445,148.389C211.927,151.852 225.821,156.748 232.65,159.372C242.026,162.975 255.361,174.487 263.153,183.77C266.58,187.853 268.929,191.534 269.509,193.946C269.937,195.725 270.969,197.502 272.325,199.302C274.472,202.153 277.423,205.036 280.27,207.99C283.209,211.038 286.035,214.163 287.832,217.383C289.092,219.641 289.852,221.952 289.852,224.316C289.852,224.582 289.747,224.836 289.559,225.023C284.961,229.621 280.132,230.831 274.964,231.548C270.092,232.224 264.907,232.439 259.34,235.009C259.207,235.07 259.145,235.202 259.09,235.352C259.015,235.558 258.974,235.8 258.95,236.065C258.873,236.91 258.976,237.955 259.089,239.022C259.241,240.454 259.41,241.924 259.311,243.086C259.242,243.909 259.028,244.601 258.67,245.113ZM17.398,285.453C19.422,287.043 22.658,287.535 26.454,287.577C33.115,287.651 41.446,286.21 48.571,285.658C53.521,285.275 57.91,285.339 60.853,286.514C63.08,287.403 64.551,288.895 65.018,291.193C66.647,299.205 72.509,304.4 81.141,307.395C94.526,312.04 114.455,311.433 136.129,307.511C174.25,300.614 217.747,283.413 240.756,265.907C246.586,261.471 251.091,257.025 253.818,252.719C255.566,249.961 256.577,247.272 256.691,244.688L257.69,245.732L256.983,244.025C257.294,243.714 257.324,243.159 257.339,242.519C257.373,241.131 257.084,239.394 256.972,237.858C256.885,236.664 256.912,235.576 257.171,234.782C257.417,234.03 257.858,233.49 258.501,233.193C264.273,230.529 269.639,230.268 274.69,229.567C279.333,228.923 283.7,227.892 287.843,223.905C287.735,221.488 286.689,219.149 285.166,216.856C283.471,214.304 281.184,211.819 278.83,209.378C273.9,204.263 268.738,199.295 267.564,194.413C267.029,192.185 264.788,188.828 261.621,185.056C254.028,176.011 241.068,164.75 231.933,161.239C225.095,158.611 211.183,153.708 202.689,150.24C198.866,148.68 196.112,147.349 195.412,146.649C193.523,144.759 189.917,143.318 185.411,142.272C174.504,139.742 158.395,139.695 147.286,142.624C143.966,143.499 141.099,144.637 138.979,146.07C137.038,147.382 135.736,148.925 135.418,150.773C135.364,151.084 135.168,151.351 134.887,151.494C134.607,151.637 134.275,151.64 133.993,151.502C128.785,148.951 122.417,149.069 116.12,150.666C106.51,153.104 97.056,159.006 91.988,164.563C90.264,166.454 89.052,168.29 88.576,169.929C88.184,171.278 88.325,172.467 89.261,173.335C89.596,173.644 89.678,174.141 89.462,174.542C89.246,174.943 88.787,175.148 88.344,175.04C82.854,173.696 76.728,175.389 70.74,178.832C61.523,184.133 52.657,193.597 46.886,203.099C43.08,209.364 40.613,215.639 40.342,220.738C40.174,223.907 40.857,226.599 42.71,228.452C43.571,229.313 43.732,230.284 43.317,231.386C43.013,232.19 42.322,233.106 41.305,234.109C37.188,238.17 27.348,244.198 21.436,253.224C15.317,262.565 12.76,274.572 13.873,280.83C14.083,282.014 14.417,282.973 14.921,283.616C15.293,284.09 15.764,284.355 16.352,284.323C16.903,284.293 17.375,284.717 17.405,285.268C17.408,285.331 17.406,285.393 17.398,285.453Z" style="fill:rgb(235,235,235);"/>
    <path d="M57.467,279.991C57.359,280.532 56.831,280.883 56.29,280.775C55.749,280.667 55.397,280.14 55.506,279.598C57.275,270.752 64.131,265.675 71.183,263.659C75.882,262.316 80.656,262.343 84.043,263.472C84.567,263.647 84.85,264.214 84.676,264.737C84.501,265.261 83.934,265.544 83.411,265.37C80.335,264.344 76,264.362 71.733,265.582C65.337,267.41 59.071,271.967 57.467,279.991Z" style="fill:rgb(235,235,235);"/>
    <path d="M62.306,228.914C64.019,228.854 67.885,228.853 72.56,231.194C77.374,233.604 83.09,238.525 88.128,248.6C88.374,249.094 88.174,249.695 87.68,249.942C87.187,250.189 86.586,249.988 86.339,249.495C76.871,230.558 65.028,230.806 62.142,230.922C61.667,230.941 61.357,230.928 61.236,230.899L60.836,230.713L60.581,230.434L60.452,230.116L60.434,229.784L60.519,229.475L60.676,229.227L60.888,229.03C60.957,228.979 61.066,228.91 61.223,228.826C61.58,228.634 62.003,228.682 62.306,228.914Z" style="fill:rgb(235,235,235);"/>
    <path d="M96.759,186.514C97.019,186.027 97.625,185.842 98.112,186.101C98.599,186.361 98.784,186.967 98.525,187.454C98.481,187.535 98.441,187.599 98.435,187.666C98.427,187.754 98.505,187.819 98.578,187.931C98.817,188.301 99.215,188.77 99.78,189.465C102.032,192.237 106.841,198.372 115.099,214.887C115.251,215.192 115.621,215.383 116.066,215.579C117.052,216.013 118.408,216.293 119.777,216.548C121.525,216.873 123.296,217.153 124.479,217.564C125.143,217.795 125.652,218.085 125.969,218.403C126.36,218.793 126.36,219.427 125.969,219.817C125.579,220.207 124.945,220.207 124.555,219.817C124.268,219.529 123.661,219.375 122.926,219.196C121.492,218.846 119.619,218.588 117.947,218.221C116.726,217.953 115.607,217.621 114.792,217.182C114.085,216.8 113.581,216.324 113.31,215.781C103.807,196.776 98.944,191.701 97.302,189.578C96.7,188.799 96.467,188.266 96.438,187.778C96.415,187.384 96.506,186.99 96.759,186.514Z" style="fill:rgb(235,235,235);"/>
    <path d="M140.431,167.691C140.593,167.163 141.153,166.867 141.68,167.029C142.208,167.191 142.505,167.751 142.343,168.278C139.52,177.471 141.575,180.2 142.219,180.987C142.623,181.481 142.833,181.841 143.217,182.705C143.992,184.448 145.622,188.547 152.319,201.941C152.565,202.434 152.365,203.035 151.871,203.282C151.378,203.529 150.777,203.329 150.53,202.835C143.805,189.385 142.168,185.268 141.389,183.517C141.108,182.885 140.967,182.615 140.671,182.253C139.933,181.352 137.196,178.225 140.431,167.691Z" style="fill:rgb(235,235,235);"/>
    <path d="M196.353,201.131C196.554,201.162 196.748,201.256 196.903,201.411L197.129,201.725C197.207,201.865 197.29,202.053 197.323,202.173L197.363,202.563L197.241,202.976L197.106,203.167L196.905,203.339L196.668,203.453L196.44,203.5L196.207,203.494L195.978,203.435L195.745,203.313L195.489,203.095L193.601,201.207C190.775,198.381 190.193,196.658 190.386,191.767C190.564,187.273 191.421,179.881 191.542,165.688C191.547,165.136 191.999,164.692 192.551,164.697C193.103,164.701 193.547,165.153 193.542,165.705C193.421,179.931 192.562,187.342 192.384,191.846C192.222,195.952 192.643,197.421 195.015,199.793L196.353,201.131Z" style="fill:rgb(235,235,235);"/>
    <path d="M235.128,172.496C235.402,172.017 236.014,171.851 236.493,172.125C236.972,172.399 237.138,173.011 236.864,173.489C236.547,174.043 236.447,174.467 236.252,175.416C235.734,177.946 234.724,183.719 229.244,202.061C229.963,202.311 230.7,202.514 231.395,202.823C231.574,202.902 231.395,202.822 233.593,203.921C234.087,204.168 234.288,204.769 234.041,205.262C233.794,205.756 233.193,205.956 232.699,205.71C230.582,204.651 230.755,204.727 230.582,204.65C229.621,204.223 228.577,203.999 227.616,203.571C227.156,203.367 226.919,202.852 227.064,202.37C232.741,183.448 233.77,177.569 234.293,175.015C234.548,173.768 234.712,173.222 235.128,172.496Z" style="fill:rgb(235,235,235);"/>
    <path d="M247.705,210.775C247.649,210.226 248.05,209.735 248.599,209.679C249.148,209.624 249.639,210.024 249.695,210.573C249.824,211.846 250.547,213.565 251.417,215.404C252.827,218.382 254.641,221.635 255.402,223.918C255.577,224.442 255.293,225.008 254.77,225.183C254.246,225.357 253.679,225.074 253.505,224.551C252.763,222.326 250.983,219.161 249.609,216.259C248.624,214.178 247.851,212.216 247.705,210.775Z" style="fill:rgb(235,235,235);"/>
</svg>
