<?xml version="1.0" encoding="UTF-8" standalone="no"?>
<!DOCTYPE svg PUBLIC "-//W3C//DTD SVG 1.1//EN" "http://www.w3.org/Graphics/SVG/1.1/DTD/svg11.dtd">
<svg width="100%" height="100%" viewBox="0 0 300 400" version="1.1" xmlns="http://www.w3.org/2000/svg" xmlns:xlink="http://www.w3.org/1999/xlink" xml:space="preserve" xmlns:serif="http://www.serif.com/" style="fill-rule:evenodd;clip-rule:evenodd;stroke-linejoin:round;stroke-miterlimit:2;">
    <path d="M34.374,35.265C34.917,35.167 35.438,35.527 35.537,36.07C35.635,36.613 35.275,37.134 34.732,37.233C32.146,37.703 31.12,39.932 30.937,42.585C30.63,47.028 32.647,52.72 35.062,55.134C37.145,57.217 51.984,72.057 61.761,83.25C66.038,88.146 69.345,92.375 70.293,94.586C91.461,143.98 95.886,149.156 98.044,153.47C98.291,153.964 98.09,154.565 97.597,154.812C97.103,155.059 96.502,154.859 96.255,154.365C94.094,150.042 89.661,144.857 68.454,95.374C67.548,93.26 64.345,89.248 60.255,84.566C50.511,73.412 35.723,58.624 33.647,56.548C30.93,53.831 28.596,47.447 28.942,42.447C29.193,38.805 30.825,35.911 34.374,35.265Z" style="fill:white;"/>
    <path d="M120.871,122.589C121.377,122.369 121.966,122.602 122.186,123.108C122.406,123.614 122.174,124.204 121.668,124.424C115.759,126.991 110.323,133.009 105.838,139.672C99.047,149.761 94.447,161.368 93.906,165.159C92.738,173.331 93,179.04 94.615,183.755C96.932,190.523 102.006,195.225 109.393,202.213C120.631,168.175 147.262,166.891 151.721,166.668C152.272,166.64 152.742,167.065 152.77,167.617C152.797,168.168 152.372,168.638 151.821,168.665C147.479,168.882 121.31,170.239 110.818,204.329C110.716,204.66 110.45,204.915 110.116,205.002C109.781,205.09 109.425,204.999 109.174,204.76C100.857,196.868 95.251,191.786 92.722,184.403C91.027,179.452 90.7,173.458 91.926,164.877C92.484,160.965 97.172,148.964 104.179,138.555C108.892,131.553 114.661,125.288 120.871,122.589Z" style="fill:white;"/>
    <path d="M221.315,316.387C220.739,316.951 220.179,317.465 219.636,317.927C219.276,318.232 218.753,318.245 218.379,317.958C218.005,317.671 217.883,317.161 218.085,316.735C218.537,315.784 219.256,315.109 220.185,314.698C234.713,300.254 258.75,254.063 261.432,221.368C263.206,199.741 256.144,180.692 247.869,165.559C239.509,150.269 229.909,138.939 226.737,132.931C226.597,132.667 226.583,132.355 226.698,132.079C226.813,131.803 227.046,131.594 227.332,131.507C230.835,130.448 256.008,122.859 272.511,124.294C273.061,124.342 273.468,124.827 273.421,125.377C273.373,125.927 272.888,126.335 272.338,126.287C257.381,124.986 235.191,131.256 229.102,133.064C232.754,139.29 241.742,150.183 249.624,164.599C258.064,180.035 265.235,199.473 263.425,221.531C260.816,253.341 238.228,297.713 223.374,314.229C224.198,314.28 225.088,314.435 226.03,314.69C233.775,316.792 245.18,325.46 248.303,332.347C253.722,344.296 253.474,360.726 252.036,370.57C251.393,374.969 250.463,378.09 249.746,379.057C249.581,379.279 249.332,379.423 249.058,379.455C248.783,379.486 248.508,379.403 248.297,379.225C247.008,378.134 245.364,375.862 243.466,372.884C239.219,366.219 233.566,355.927 227.337,348.102C224.439,344.462 221.424,341.358 218.361,339.451C215.502,337.671 212.615,336.949 209.766,337.987C198.957,341.926 188.86,351.164 171.748,376.988C171.557,377.277 171.23,377.446 170.885,377.435C170.539,377.425 170.223,377.236 170.049,376.937C163.752,366.059 160.672,344.761 172.879,329.156C178.001,322.609 185.813,317.049 197.233,313.707C200.701,280.568 201.374,252.004 167.579,221.377C155.682,210.596 147.004,204.65 140.014,199.343C132.907,193.946 127.52,189.193 122.283,180.828C121.99,180.36 122.132,179.742 122.6,179.45C123.068,179.157 123.686,179.299 123.978,179.766C129.069,187.896 134.316,192.505 141.223,197.75C148.248,203.084 156.966,209.061 168.922,219.895C203.575,251.3 202.744,280.543 199.152,314.587C199.109,314.994 198.822,315.334 198.429,315.445C187.149,318.624 179.454,323.998 174.454,330.389C163.333,344.604 165.544,363.779 171.002,374.5C187.951,349.143 198.222,340.065 209.082,336.108C212.501,334.862 215.985,335.616 219.418,337.753C222.648,339.764 225.846,343.018 228.902,346.856C234.285,353.62 239.248,362.206 243.252,368.754C245.367,372.212 247.19,375.093 248.664,376.77C249.147,375.42 249.638,373.147 250.057,370.281C251.452,360.725 251.742,344.772 246.482,333.173C243.546,326.699 232.787,318.597 225.506,316.621C224.067,316.23 222.777,316.079 221.733,316.28C221.588,316.308 221.448,316.344 221.315,316.387Z" style="fill:white;"/>
    <path d="M272.852,124.287C273.404,124.306 273.836,124.769 273.817,125.32C273.799,125.872 273.335,126.304 272.784,126.285C271.878,126.254 271.118,125.68 270.213,124.485C267.617,121.055 262.283,111.994 232.555,105.134C216.541,101.438 212.958,102.909 196.456,102.159C195.961,102.136 195.317,101.913 194.549,101.446C193.162,100.601 191.188,98.894 188.616,96.635C174.368,84.121 141.002,54.307 84.283,65.65C79.282,66.651 74.659,64.768 69.061,60.962C61.083,55.537 50.971,46.16 34.227,36.404C33.75,36.126 33.589,35.514 33.867,35.037C34.144,34.56 34.757,34.398 35.234,34.676C52.032,44.464 62.181,53.865 70.185,59.308C75.243,62.746 79.373,64.593 83.891,63.689C141.533,52.161 175.456,82.414 189.936,95.132C192.055,96.994 193.746,98.472 195.026,99.367C195.682,99.826 196.169,100.144 196.546,100.161C213.213,100.919 216.83,99.453 233.005,103.185C259.865,109.384 267.38,117.44 270.644,121.712C271.316,122.592 271.797,123.309 272.233,123.809C272.455,124.064 272.606,124.278 272.852,124.287Z" style="fill:white;"/>
</svg>
