<?xml version="1.0" encoding="UTF-8" standalone="no"?>
<!DOCTYPE svg PUBLIC "-//W3C//DTD SVG 1.1//EN" "http://www.w3.org/Graphics/SVG/1.1/DTD/svg11.dtd">
<svg width="100%" height="100%" viewBox="0 0 300 400" version="1.1" xmlns="http://www.w3.org/2000/svg" xmlns:xlink="http://www.w3.org/1999/xlink" xml:space="preserve" xmlns:serif="http://www.serif.com/" style="fill-rule:evenodd;clip-rule:evenodd;stroke-linecap:round;stroke-linejoin:round;stroke-miterlimit:1.5;">
    <g transform="matrix(0.799539,1.54634,-1.96653,1.0168,282.732,-299.497)">
        <ellipse cx="188.079" cy="158.417" rx="12.593" ry="10.188" style="fill:none;stroke:rgb(235,235,235);stroke-width:1px;"/>
    </g>
    <g transform="matrix(0.799539,1.54634,-1.96653,1.0168,316.861,-221.535)">
        <ellipse cx="188.079" cy="158.417" rx="12.593" ry="10.188" style="fill:none;stroke:rgb(235,235,235);stroke-width:1px;"/>
    </g>
    <g transform="matrix(0.799539,1.54634,-1.96653,1.0168,244.243,-181.653)">
        <ellipse cx="188.079" cy="158.417" rx="12.593" ry="10.188" style="fill:none;stroke:rgb(235,235,235);stroke-width:1px;"/>
    </g>
    <g transform="matrix(0.666916,-0.78893,0.73898,0.624691,-147.73,201.76)">
        <path d="M226.151,288.38L216.217,284.923C218.26,279.179 219.304,273.134 219.304,267.045C219.304,254.858 215.127,243.032 207.455,233.498L215.694,227.01C224.849,238.389 229.834,252.502 229.834,267.045C229.834,274.311 228.589,281.525 226.151,288.38Z" style="fill:none;stroke:rgb(235,235,235);stroke-width:2px;"/>
    </g>
    <g transform="matrix(0.999703,-0.0783119,0.0761,0.971466,-136.163,-18.1811)">
        <path d="M226.151,288.38L216.217,284.923C218.26,279.179 219.304,273.134 219.304,267.045C219.304,254.858 215.127,243.032 207.455,233.498L215.694,227.01C224.849,238.389 229.834,252.502 229.834,267.045C229.834,274.311 228.589,281.525 226.151,288.38Z" style="fill:none;stroke:rgb(235,235,235);stroke-width:2.02px;"/>
    </g>
    <g transform="matrix(0.899534,2.72212,-2.34299,0.774251,282.403,-246.443)">
        <path d="M91.648,110.48C99.761,95.846 134.473,75.564 151.523,77.373" style="fill:none;stroke:rgb(235,235,235);stroke-width:0.75px;"/>
    </g>
    <path d="M237.901,229.03C237.36,229.141 236.832,228.791 236.721,228.251C236.61,227.71 236.959,227.181 237.5,227.071C238.218,226.923 238.821,226.931 239.442,226.984C241.481,227.157 243.738,227.815 253.24,222.814C254.706,222.042 256.071,220.474 257.273,218.507C259.175,215.392 260.63,211.277 261.256,207.426C261.663,204.914 261.721,202.516 261.291,200.598C261.034,199.455 260.61,198.493 259.946,197.828C259.555,197.438 259.555,196.804 259.946,196.414C260.336,196.023 260.969,196.023 261.36,196.414C262.265,197.319 262.893,198.604 263.242,200.16C263.72,202.291 263.683,204.955 263.23,207.746C262.564,211.85 261.006,216.231 258.98,219.549C257.562,221.871 255.901,223.674 254.172,224.583C245.19,229.311 242.168,229.254 240.083,229.057C239.325,228.985 238.711,228.864 237.901,229.03Z" style="fill:rgb(235,235,235);"/>
    <g transform="matrix(7.19072,0.139129,-0.190386,9.83992,-1178.19,-1736.31)">
        <path d="M204.97,194.401C201.477,195.408 202.704,196.587 202.191,196.845C194.252,200.837 175.785,208.326 172.403,206.571C170.582,205.626 183.414,182.88 183.414,182.88C183.638,180.885 186.236,181.057 186.451,181.016C189.882,180.353 201.819,188.706 205.102,193.223C205.218,193.383 205.505,194.149 204.97,194.401Z" style="fill:none;stroke:rgb(235,235,235);stroke-width:0.23px;"/>
    </g>
</svg>
