<?xml version="1.0" encoding="UTF-8" standalone="no"?>
<!DOCTYPE svg PUBLIC "-//W3C//DTD SVG 1.1//EN" "http://www.w3.org/Graphics/SVG/1.1/DTD/svg11.dtd">
<svg width="100%" height="100%" viewBox="0 0 300 400" version="1.1" xmlns="http://www.w3.org/2000/svg" xmlns:xlink="http://www.w3.org/1999/xlink" xml:space="preserve" xmlns:serif="http://www.serif.com/" style="fill-rule:evenodd;clip-rule:evenodd;stroke-linecap:round;stroke-linejoin:round;stroke-miterlimit:1.5;">
    <path d="M112.278,78.679C113.382,79.519 118.287,83.146 124.143,85.908C127.421,87.454 130.998,88.734 134.364,89.068C137.543,89.383 140.53,88.852 142.816,86.773C143.224,86.402 143.857,86.432 144.228,86.84C144.6,87.248 144.57,87.881 144.161,88.253C141.452,90.717 137.935,91.431 134.167,91.058C130.587,90.703 126.776,89.361 123.29,87.717C117.111,84.802 111.958,80.953 110.989,80.21L110.812,80.073L110.496,79.633C107.494,71.386 109.314,64.695 111.259,61.064C112.178,59.348 113.17,58.285 113.746,57.941C114.408,57.544 115.86,57.136 117.87,56.876C122.196,56.317 129.279,56.321 136.19,57.933C146.291,60.289 155.956,66.078 156.609,78.239C156.638,78.79 156.215,79.261 155.664,79.291C155.113,79.321 154.641,78.897 154.612,78.346C154.013,67.195 144.998,62.041 135.736,59.881C129.092,58.331 122.285,58.322 118.126,58.86C116.5,59.07 115.309,59.336 114.773,59.657C114.35,59.91 113.697,60.748 113.022,62.008C111.269,65.28 109.676,71.28 112.278,78.679Z" style="fill:white;"/>
    <path d="M110.317,59.452C102.583,69.453 108.1,78.523 108.186,78.87C108.253,79.142 108.203,79.43 108.048,79.664C107.893,79.897 107.648,80.055 107.371,80.098C84.644,83.68 85.352,85.479 78.771,88.308C78.395,88.469 77.959,88.385 77.669,88.096C71.532,81.955 69.622,76.532 70.29,72.012C71.288,65.244 78.187,60.292 86.261,57.709C91.509,56.03 97.222,55.332 101.978,55.702C105.264,55.957 108.101,56.73 110.069,58C110.304,58.152 110.465,58.396 110.512,58.672C110.559,58.948 110.488,59.231 110.317,59.452ZM108.049,59.158C106.393,58.357 104.241,57.884 101.824,57.696C97.298,57.344 91.863,58.016 86.871,59.614C79.585,61.945 73.169,66.197 72.268,72.304C71.686,76.248 73.456,80.878 78.606,86.196C84.533,83.528 84.692,81.719 105.775,78.327C104.588,75.59 101.977,67.778 108.049,59.158Z" style="fill:white;"/>
    <path d="M70.072,65.708C67.593,68.187 67.487,71.941 68.206,75.623C69.349,81.477 72.673,87.206 73.313,88.117C73.487,88.366 73.539,88.681 73.454,88.973C73.368,89.265 73.155,89.502 72.873,89.617C56.063,96.497 54.878,101.642 46.906,115.993C46.745,116.283 46.451,116.474 46.122,116.504C45.792,116.534 45.469,116.398 45.259,116.142C35.638,104.426 35.659,104.386 23.025,98.306C22.529,98.067 22.319,97.472 22.556,96.975C36.124,68.493 62.283,65.741 69.122,64.031C69.558,63.922 70.014,64.117 70.235,64.508C70.457,64.9 70.39,65.39 70.072,65.708ZM67.03,66.532C58.03,68.391 36.712,72.904 24.797,96.939C36.51,102.582 37.1,103.062 45.869,113.734C53.338,100.151 55.14,94.912 71.027,88.218C69.752,86.018 67.229,81.058 66.243,76.006C65.587,72.644 65.631,69.254 67.03,66.532Z" style="fill:white;"/>
    <path d="M20.8,100.929C21.213,100.877 21.79,100.952 22.489,101.196C23.304,101.48 24.345,101.997 25.527,102.693C29.913,105.275 36.371,110.365 40.422,114.372C42.241,116.172 43.579,117.778 44.103,118.864C44.482,119.648 44.483,120.292 44.298,120.724C41.624,126.959 41.449,134.697 41.85,141.546C42.263,148.614 43.282,154.769 43.003,157.548C42.87,158.876 42.344,159.621 41.751,159.875C41.284,160.075 40.656,160.083 39.875,159.627C37.567,158.278 33.916,158.374 29.888,159.082C19.937,160.832 7.783,166.578 6.255,167.23L5.921,167.32L5.545,167.308L5.151,167.158L4.776,166.828C4.603,166.613 4.418,166.236 4.284,165.687C4.07,164.809 3.923,163.338 3.872,161.407C3.663,153.478 4.997,137.471 8.817,123.547C11.404,114.121 15.156,105.658 20.266,101.17C20.416,101.038 20.602,100.954 20.8,100.929ZM6.197,165.068C9.362,163.653 20.373,158.725 29.542,157.112C34.121,156.307 38.26,156.367 40.884,157.9C40.895,157.906 40.905,157.912 40.917,157.918C40.917,157.917 40.918,157.916 40.918,157.914C40.974,157.708 41.008,157.456 41.029,157.163C41.074,156.542 41.057,155.764 41.003,154.855C40.554,147.308 37.634,131.335 42.414,120.044C42.374,119.936 42.243,119.6 42.093,119.357C41.513,118.417 40.413,117.177 39.015,115.794C35.07,111.892 28.784,106.931 24.512,104.416C23.467,103.801 22.551,103.335 21.831,103.084C21.629,103.014 21.453,102.956 21.302,102.928C16.572,107.273 13.166,115.254 10.746,124.076C6.984,137.786 5.666,153.547 5.871,161.354C5.911,162.861 6.006,164.062 6.156,164.877C6.168,164.94 6.182,165.005 6.197,165.068Z" style="fill:white;"/>
    <path d="M73.566,195.147C74.208,195.365 74.702,195.658 75.042,196C75.384,196.344 75.43,196.884 75.152,197.28C74.873,197.677 74.35,197.817 73.911,197.612C73.571,197.453 73.184,197.242 72.754,196.982C72.626,196.947 72.488,196.915 72.341,196.885C71.189,196.648 69.603,196.626 67.706,196.772C59.971,197.364 47.307,200.777 37.293,205.312C31.666,207.86 26.874,210.745 24.341,213.709C22.881,215.416 22.187,217.116 22.806,218.785C22.976,219.243 22.79,219.757 22.367,220C21.943,220.243 21.406,220.145 21.096,219.767C19.747,218.124 10.587,201.356 6.247,188.301C4.32,182.506 3.395,177.406 4.321,174.565C4.351,174.474 4.393,174.388 4.448,174.308C12.079,163.213 26.046,160.331 34.506,160.751C36.74,160.862 38.598,161.204 39.875,161.672C40.938,162.062 41.644,162.578 41.984,163.085C50.163,175.283 66.917,191.079 73.566,195.147ZM69.466,194.686C61.462,188.564 47.577,175.017 40.322,164.198C40.147,163.937 39.734,163.751 39.187,163.55C38.051,163.134 36.395,162.847 34.407,162.748C26.478,162.355 13.382,164.98 6.182,175.317L6.181,175.32C5.901,176.28 5.879,177.52 6.031,178.964C6.289,181.422 7.066,184.427 8.144,187.67C11.493,197.744 17.748,210.088 20.894,215.653C21.25,214.571 21.902,213.485 22.821,212.41C25.496,209.279 30.525,206.181 36.468,203.49C46.702,198.856 59.648,195.383 67.553,194.778C68.227,194.726 68.866,194.695 69.466,194.686Z" style="fill:white;"/>
    <path d="M23.099,220.031C33.938,206.482 51.44,200.375 68.645,200.088C85.846,199.801 102.721,205.34 112.309,214.928C112.515,215.135 112.621,215.422 112.598,215.713C112.576,216.005 112.426,216.272 112.19,216.444C82.281,238.195 77.322,249.167 73.741,255.228C72.076,258.046 70.662,259.862 67.526,261.218C64.276,262.622 59.35,261.505 53.919,258.463C41.857,251.707 27.043,235.674 22.916,220.925C22.83,220.616 22.897,220.283 23.099,220.031ZM24.985,220.88C29.17,235.026 43.349,250.25 54.897,256.718C57.822,258.356 60.569,259.43 62.933,259.744C64.377,259.936 65.664,259.844 66.733,259.382C69.42,258.221 70.592,256.625 72.019,254.21C75.614,248.125 80.555,237.138 110.052,215.528C100.662,206.771 84.805,201.819 68.678,202.088C52.233,202.362 35.477,208.076 24.985,220.88Z" style="fill:white;"/>
    <path d="M117.691,212.334C117.813,210.008 116.841,203.956 117.41,197.394C118.003,190.57 120.249,183.24 126.804,178.703C128.471,177.548 141.471,171.895 149.759,171.153C151.654,170.984 153.316,171.073 154.58,171.482C156.103,171.974 157.11,172.91 157.466,174.337C158.411,178.116 156.305,180.791 152.951,182.797C148.557,185.426 141.936,186.856 139.095,188.75C136.002,190.812 135.286,194.791 135.438,198.889C135.684,205.506 138.306,212.503 138.568,213.638C138.648,213.987 138.536,214.353 138.273,214.596C138.01,214.84 137.637,214.924 137.295,214.817C128.135,211.955 128.05,210.32 119.006,213.335C118.693,213.439 118.347,213.382 118.084,213.182C117.821,212.981 117.674,212.664 117.691,212.334ZM119.672,211.016C127.475,208.56 128.469,209.795 136.087,212.326C135.223,209.536 133.632,204.135 133.44,198.963C133.26,194.127 134.336,189.519 137.986,187.086C140.845,185.18 147.502,183.727 151.924,181.081C154.45,179.57 156.237,177.668 155.526,174.822C155.34,174.077 154.761,173.642 153.965,173.385C152.909,173.044 151.519,173.004 149.937,173.146C142,173.856 129.539,179.241 127.942,180.347C121.92,184.516 119.947,191.297 119.403,197.567C118.929,203.029 119.532,208.136 119.672,211.016Z" style="fill:white;"/>
    <path d="M146.686,217.537C159.474,196.223 160.343,191.978 160.963,189.909C161.867,186.897 164.921,184.181 169.352,181.932C179.097,176.986 195.568,174.061 207.938,173.566C210.043,173.482 211.506,173.64 212.435,173.953C213.332,174.255 213.841,174.728 214.093,175.237C214.489,176.042 214.299,177.154 213.308,178.371C211.708,180.335 207.881,182.943 203.504,185.41C197.038,189.055 189.387,192.43 186.253,193.121C179.148,194.689 176.052,199.148 174.43,204.717C172.717,210.599 172.585,217.673 171.377,224.088C171.319,224.396 171.12,224.659 170.839,224.799C170.558,224.938 170.228,224.938 169.947,224.797C164.158,221.902 157.252,220.544 147.392,219.04C147.063,218.989 146.78,218.778 146.638,218.477C146.496,218.175 146.514,217.822 146.686,217.537ZM149.164,217.289C157.855,218.648 164.241,219.981 169.639,222.435C170.658,216.308 170.893,209.709 172.51,204.157C174.331,197.903 177.842,192.929 185.822,191.168C188.858,190.498 196.258,187.2 202.521,183.668C206.63,181.352 210.256,178.952 211.757,177.108C211.938,176.886 212.084,176.676 212.184,176.476C212.254,176.339 212.322,176.225 212.297,176.116C212.282,176.052 212.205,176.033 212.126,175.989C211.946,175.888 211.713,175.811 211.426,175.746C210.635,175.566 209.516,175.505 208.018,175.564C195.915,176.049 179.792,178.876 170.257,183.715C166.424,185.66 163.661,187.879 162.879,190.484C162.261,192.543 161.427,196.74 149.164,217.289Z" style="fill:white;"/>
    <path d="M113.352,293.482C113.784,299.142 112.063,302.482 110.937,314.943C109.746,328.125 108.932,343.372 109.614,352.486C109.784,354.759 110.045,356.639 110.424,357.99C110.632,358.729 110.851,359.289 111.147,359.61C111.478,359.97 111.501,360.517 111.199,360.902C110.898,361.288 110.362,361.399 109.932,361.165C107.465,359.819 97.046,354.082 90.46,347.686C87.497,344.807 85.319,341.769 84.811,338.941C83.523,331.77 87.378,308.621 92.858,295.239C94.303,291.71 95.87,288.851 97.467,287.094C97.824,286.701 98.187,286.36 98.552,286.073C94.261,284.477 92.122,282.681 90.25,281.421C88.314,280.118 86.695,279.516 82.694,280.602C81.002,281.061 73.715,282.827 66.956,285.671C62.702,287.462 58.644,289.661 56.441,292.266C55.32,301.261 47.023,326.697 45.479,332.178C45.4,332.457 45.203,332.689 44.94,332.812C44.677,332.935 44.373,332.938 44.108,332.819C42.585,332.138 41.195,330.37 40.093,327.753C37.774,322.246 36.515,312.833 36.588,303.449C36.65,295.405 37.689,287.387 39.819,281.872C41.324,277.978 43.426,275.312 45.998,274.48C47.827,273.196 59.278,264.294 72.425,264.552C73.46,261.783 76.403,257.591 80.246,252.939C89.853,241.309 105.028,226.602 108.297,223.985C118.042,216.183 129.769,214.974 137.351,218.91C143.962,222.341 151.447,224.591 155.431,227.806C155.711,228.032 155.848,228.392 155.79,228.747C155.731,229.102 155.486,229.399 155.148,229.523C149.5,231.601 142.862,238.342 137.202,247.341C128.622,260.981 122.33,279.848 125.412,296.058C125.476,296.396 125.362,296.743 125.11,296.977C124.859,297.211 124.504,297.3 124.172,297.211C118.599,295.726 115.046,294.262 113.352,293.482ZM108.36,357.997C108.026,356.604 107.781,354.784 107.62,352.635C106.932,343.442 107.744,328.06 108.945,314.763C110.144,301.494 112.083,298.774 111.21,292.236L111.201,291.936L111.265,291.644L111.422,291.353L111.691,291.101L112.129,290.933L112.426,290.924L112.722,290.98C113.485,291.196 116.162,292.87 123.178,294.863C120.677,278.542 126.954,259.877 135.509,246.276C140.909,237.692 147.23,231.14 152.79,228.371C148.686,225.728 142.209,223.685 136.43,220.685C129.407,217.04 118.574,218.32 109.547,225.546C106.311,228.137 91.298,242.701 81.788,254.213C77.813,259.024 74.787,263.264 74.112,265.83C73.992,266.287 73.569,266.597 73.098,266.575C59.902,265.957 48.35,275.318 46.992,276.223C46.907,276.28 46.815,276.323 46.717,276.351C44.548,276.985 42.945,279.333 41.685,282.593C39.624,287.927 38.648,295.685 38.588,303.465C38.527,311.264 39.392,319.088 41.059,324.527C41.697,326.609 42.446,328.332 43.319,329.537C43.524,329.819 43.732,330.071 43.948,330.287C46.186,322.803 53.591,299.825 54.488,291.748C54.509,291.56 54.583,291.382 54.701,291.235C57.024,288.325 61.469,285.811 66.181,283.828C73.048,280.938 80.451,279.138 82.17,278.671C87.045,277.349 89.008,278.174 91.367,279.762C93.459,281.17 95.893,283.299 101.603,284.977C102.072,285.115 102.372,285.571 102.314,286.055C102.256,286.54 101.856,286.912 101.369,286.935C100.544,286.974 99.756,287.549 98.947,288.439C97.469,290.066 96.047,292.729 94.709,295.996C89.366,309.043 85.524,331.596 86.78,338.587C87.386,341.961 90.787,345.565 94.781,348.856C99.456,352.707 105,356.074 108.36,357.997Z" style="fill:white;"/>
    <path d="M186.247,228.075C185.788,227.518 185.521,226.605 185.564,225.37C185.643,223.135 186.703,219.607 188.534,215.471C192.103,207.413 198.582,196.962 205.952,189.353C210.971,184.17 216.42,180.317 221.638,179.302C242.663,175.212 253.68,176.387 264.439,178.042C264.786,178.096 265.08,178.327 265.213,178.653C265.346,178.978 265.298,179.349 265.087,179.63C262.131,183.572 257.844,187.27 254.578,191.452C251.492,195.404 249.331,199.8 250.403,205.355C250.475,205.724 250.333,206.102 250.037,206.333C249.74,206.565 249.339,206.61 248.999,206.451C236.794,200.756 227.196,196.987 224.372,195.903C223.489,197.562 222.356,198.835 221.081,200.393C217.811,204.386 213.655,210.426 210.836,231.421C210.799,231.698 210.648,231.947 210.419,232.107C210.19,232.267 209.905,232.325 209.632,232.265C187.851,227.506 197.537,229.376 186.931,228.436C186.664,228.412 186.417,228.282 186.247,228.075ZM187.645,226.49C197.337,227.317 188.717,225.64 209.001,230.08C211.913,209.255 216.211,203.183 219.533,199.126C220.896,197.461 222.106,196.168 222.958,194.239C223.172,193.755 223.726,193.521 224.222,193.706C224.222,193.706 234.339,197.48 248.18,203.866C247.733,198.54 249.917,194.171 253.001,190.221C255.889,186.524 259.579,183.206 262.434,179.762C252.361,178.282 241.602,177.455 222.02,181.265C217.137,182.215 212.085,185.894 207.388,190.744C200.183,198.183 193.852,208.403 190.363,216.281C188.898,219.59 187.934,222.475 187.645,224.547C187.56,225.162 187.534,225.696 187.585,226.136C187.599,226.265 187.618,226.385 187.645,226.49Z" style="fill:white;"/>
    <path d="M155.022,333.858C167.72,342.252 171.975,344.662 173.04,345.552C173.197,345.683 173.309,345.797 173.387,345.894L173.602,346.246L173.695,346.715L173.661,346.981L173.573,347.218C171.082,352.201 168.003,355.111 167.045,360.598C166.412,364.227 166.723,368.982 168.705,376.225C168.806,376.594 168.688,376.988 168.4,377.241C168.113,377.493 167.707,377.559 167.354,377.411C155.858,372.592 146.28,365.965 139.113,358.613C130.65,349.932 126.592,340.064 124.561,331.292C119.515,309.503 136.548,297.849 150.754,297.122C160.526,296.622 168.882,301.275 168.429,311.029C168.388,311.916 167.631,313.521 166.393,315.479C163.808,319.566 159.19,325.513 156.657,329.838C155.931,331.079 155.379,332.173 155.13,333.035C155.07,333.242 155.028,333.433 155.013,333.604C155.005,333.689 155.016,333.809 155.022,333.858ZM171.491,346.897C171.283,346.745 171.001,346.544 170.695,346.345C168.607,344.982 163.854,342.095 153.877,335.499C153.324,335.134 153.011,334.552 153.007,333.74C153.002,332.645 153.724,330.89 154.931,328.828C157.474,324.485 162.108,318.513 164.702,314.41C165.336,313.408 165.844,312.526 166.155,311.815C166.311,311.458 166.421,311.164 166.431,310.936C166.825,302.458 159.35,298.685 150.856,299.119C137.662,299.794 121.822,310.604 126.509,330.841C128.47,339.307 132.377,348.838 140.545,357.217C147.152,363.994 155.86,370.134 166.257,374.759C164.642,368.217 164.466,363.741 165.075,360.254C166.032,354.769 168.965,351.732 171.491,346.897Z" style="fill:white;"/>
    <path d="M176.723,351.095C192.796,340.041 204.141,339.432 211.894,342.336C219.744,345.277 224,351.872 225.842,355.364C225.995,355.654 225.997,356 225.846,356.291C225.695,356.582 225.411,356.78 225.085,356.822C213.796,358.273 212.602,356.245 204.159,362.223C218.29,370.602 235.014,373.568 244.447,372.609C244.76,372.577 245.07,372.695 245.284,372.926C245.497,373.158 245.589,373.476 245.532,373.786C242.902,388.017 226.976,395.575 210.455,396.08C195.649,396.534 180.484,391.326 174.242,380.607C170.048,373.405 169.779,363.684 176.411,351.442C176.486,351.304 176.593,351.184 176.723,351.095ZM178.056,352.606L178.055,352.608C171.981,363.932 172.08,372.921 175.97,379.6C181.89,389.765 196.353,394.511 210.394,394.081C225.422,393.621 240.104,387.239 243.283,374.708C233.062,375.32 215.992,371.979 201.824,363.144C201.543,362.969 201.367,362.665 201.354,362.334C201.341,362.003 201.493,361.687 201.76,361.49C211.33,354.439 212.431,356.249 223.361,355.016C221.38,351.639 217.584,346.603 211.193,344.209C203.864,341.464 193.209,342.241 178.056,352.606Z" style="fill:white;"/>
    <path d="M263.94,186.232C273.696,177.71 285.082,184.133 292.225,194.598C296.411,200.731 299.114,208.207 299.158,214.611C299.188,219.059 297.94,222.999 295.12,225.719C294.786,226.04 294.275,226.091 293.885,225.84C292.873,225.19 293.321,224.585 283.033,217.862C286.883,232.685 288.402,232.99 292.519,249.311C292.605,249.65 292.507,250.009 292.261,250.258C292.015,250.507 291.658,250.609 291.317,250.528C273.239,246.211 262.211,237.756 256.668,228.155C248.261,213.594 252.391,196.32 263.94,186.232ZM265.256,187.738C254.397,197.224 250.495,213.463 258.4,227.155C263.564,236.099 273.732,243.925 290.167,248.181C286.147,232.635 284.65,232.623 280.464,215.877C280.364,215.48 280.518,215.061 280.851,214.822C281.184,214.583 281.629,214.572 281.974,214.794C291.736,221.069 293.517,222.832 294.343,223.633C296.346,221.314 297.182,218.141 297.158,214.625C297.116,208.573 294.529,201.521 290.573,195.725C284.144,186.307 274.036,180.069 265.256,187.738Z" style="fill:white;"/>
    <path d="M159.197,231.876L159.201,231.875C172.485,227.298 186.047,228.438 197.848,231.644C215.473,236.432 229.139,245.823 231.92,247.34C237.2,250.221 242.142,250.33 246.811,250.824C250.555,251.221 254.133,251.854 257.59,254.082C261.022,256.293 264.355,260.088 267.57,266.896C267.741,267.258 267.679,267.687 267.414,267.987C267.148,268.286 266.729,268.398 266.349,268.272C249.723,262.73 249.359,265.76 231.962,266.551C227.163,272.342 225.387,276.131 225.333,279.118C225.295,281.281 226.201,282.967 227.38,284.676C228.633,286.492 230.187,288.321 231.469,290.614C235.798,291.755 248.46,292.143 255.36,294.551C257.038,295.136 258.396,295.85 259.287,296.686C260.369,297.702 260.838,298.903 260.558,300.304C259.857,303.809 257.042,305.729 253.027,306.582C247.592,307.736 239.871,306.934 233.102,306.275C228.746,305.85 224.798,305.484 222.184,305.813C221.435,305.907 220.81,306.053 220.345,306.297C220.065,306.444 219.853,306.616 219.78,306.877C219.394,308.246 218.133,309.544 216.158,310.627C213.557,312.052 209.671,313.185 205.338,313.937C197.842,315.237 189.004,315.408 183.299,314.137C180.631,313.542 178.619,312.596 177.591,311.389C170.921,303.552 165.751,299.121 160.575,296.691C152.792,293.038 145.029,293.91 132.308,294.314C131.88,294.328 131.491,294.067 131.341,293.667C128.817,286.955 129.198,279.07 131.283,271.212C134.363,259.599 141.152,248.044 147.461,240.545C150.21,237.278 152.875,234.776 155.108,233.343C156.681,232.333 158.086,231.848 159.197,231.876ZM159.245,233.88C158.426,233.803 157.395,234.251 156.188,235.026C154.083,236.377 151.583,238.752 148.992,241.832C142.842,249.143 136.219,260.404 133.216,271.725C131.313,278.897 130.857,286.092 132.972,292.292C145.678,291.87 153.537,291.178 161.425,294.881C166.795,297.402 172.193,301.961 179.114,310.093C179.525,310.575 180.161,310.972 180.959,311.321C182.327,311.919 184.14,312.342 186.225,312.618C191.619,313.333 198.784,313.044 204.996,311.966C209.078,311.258 212.746,310.215 215.197,308.873C216.589,308.11 217.583,307.3 217.855,306.335C218.155,305.267 219.069,304.488 220.585,304.083C223.21,303.381 227.962,303.764 233.296,304.284C239.859,304.924 247.343,305.744 252.611,304.625C255.732,303.963 258.052,302.636 258.596,299.912C258.735,299.22 258.452,298.646 257.918,298.144C257.192,297.463 256.067,296.916 254.7,296.439C247.605,293.962 234.396,293.638 230.491,292.414C230.241,292.335 230.032,292.161 229.908,291.93C228.63,289.533 227.014,287.668 225.734,285.812C224.312,283.751 223.287,281.691 223.334,279.082C223.393,275.763 225.247,271.452 230.71,264.929C230.89,264.714 231.153,264.584 231.434,264.572C248.795,263.833 249.809,260.955 264.709,265.638C262.048,260.587 259.333,257.584 256.507,255.763C253.333,253.718 250.037,253.177 246.6,252.813C241.693,252.294 236.512,252.124 230.962,249.096C228.216,247.598 214.729,238.303 197.324,233.574C185.827,230.451 172.607,229.317 159.668,233.829C159.533,233.876 159.388,233.894 159.245,233.88Z" style="fill:white;"/>
    <g transform="matrix(0.733745,0.209787,-0.232576,0.813452,89.585,-65.726)">
        <path d="M164.71,98.563L179.709,141.663L228.248,141.663L188.979,168.301L203.979,211.402L164.71,184.764L125.441,211.402L140.44,168.301L101.172,141.663L149.711,141.663L164.71,98.563Z" style="fill:none;stroke:white;stroke-width:2.48px;"/>
    </g>
</svg>
