<?xml version="1.0" encoding="UTF-8" standalone="no"?>
<!DOCTYPE svg PUBLIC "-//W3C//DTD SVG 1.1//EN" "http://www.w3.org/Graphics/SVG/1.1/DTD/svg11.dtd">
<svg width="100%" height="100%" viewBox="0 0 300 400" version="1.1" xmlns="http://www.w3.org/2000/svg" xmlns:xlink="http://www.w3.org/1999/xlink" xml:space="preserve" xmlns:serif="http://www.serif.com/" style="fill-rule:evenodd;clip-rule:evenodd;stroke-linejoin:round;stroke-miterlimit:2;">
    <g transform="matrix(0.880633,0,0,0.979401,19.4315,2.57614)">
        <path d="M163.134,120.322C163.259,119.842 163.794,119.543 164.328,119.656C164.862,119.768 165.194,120.249 165.069,120.729C165.069,120.729 155.545,157.398 172.58,202.953C188.46,245.421 209.458,297.632 234.518,322.679C266.754,354.898 315.232,337.375 315.232,337.375C315.741,337.191 316.32,337.414 316.524,337.871C316.729,338.329 316.481,338.849 315.972,339.033C315.972,339.033 266.167,356.984 233.04,323.874C207.844,298.69 186.663,246.222 170.696,203.522C153.46,157.428 163.134,120.322 163.134,120.322Z" style="fill:white;"/>
    </g>
    <path d="M133.559,106.732C133.915,106.406 134.469,106.431 134.795,106.788C135.12,107.145 135.095,107.699 134.738,108.024C134.738,108.024 114.23,126.732 106.782,151.948C99.649,176.096 87.533,186.895 74.366,200.233C61.367,213.401 47.352,229.09 36.246,263.01C18.522,317.141 38.669,353.915 48.104,374.701C60.045,401.009 70.511,412.994 72.711,415.898C73.003,416.283 72.927,416.833 72.542,417.124C72.157,417.416 71.608,417.34 71.316,416.955C69.099,414.028 58.548,401.945 46.511,375.425C36.969,354.403 16.658,317.207 34.583,262.465C45.811,228.175 59.98,212.316 73.121,199.004C86.095,185.861 98.075,175.247 105.103,151.452C112.686,125.781 133.559,106.732 133.559,106.732Z" style="fill:white;"/>
    <path d="M137.926,141.392C137.693,141.639 136.69,142.722 135.667,144.091C129.511,152.331 114.65,177.299 115.945,213.244C117.212,248.394 122.614,261.854 119.695,300.098C115.469,355.459 93.798,392.229 93.798,392.229C93.553,392.645 93.016,392.784 92.6,392.539C92.184,392.293 92.045,391.757 92.29,391.341C92.29,391.341 113.759,354.868 117.95,299.964C120.862,261.807 115.46,248.377 114.196,213.307C112.714,172.185 132.08,145.208 136.183,140.667C136.681,140.116 137.049,139.843 137.184,139.784L137.374,139.723L137.589,139.704L137.931,139.782L138.188,139.958L138.363,140.197C138.579,140.629 138.403,141.155 137.971,141.371C137.956,141.378 137.941,141.386 137.926,141.392ZM137.167,141.36C137.013,141.277 136.882,141.148 136.797,140.98C136.883,141.152 137.006,141.279 137.167,141.36Z" style="fill:white;"/>
    <path d="M142.751,178.466C142.756,177.983 143.152,177.595 143.635,177.599C144.117,177.604 144.506,178 144.501,178.483C144.42,186.905 148.279,194.401 152.976,202.767C160.2,215.635 169.415,230.491 170.168,253.455C170.513,263.956 167.625,279.711 165.938,296.675C164.267,313.47 163.773,331.464 168.898,346.649C181.388,383.657 213.824,394.397 213.824,394.397C214.283,394.548 214.532,395.044 214.381,395.502C214.229,395.961 213.734,396.21 213.275,396.058C213.275,396.058 180.028,385.098 167.24,347.209C162.04,331.8 162.501,313.544 164.196,296.502C165.874,279.628 168.762,263.958 168.419,253.513C167.678,230.904 158.562,216.293 151.45,203.624C146.589,194.965 142.667,187.182 142.751,178.466Z" style="fill:white;"/>
    <path d="M131.819,30.668C158.289,15.846 184.263,11.515 202.536,22.5C214.751,29.842 223.595,44.031 226.825,66.627C228.608,79.103 237.15,90.271 240.951,99.947C242.96,105.061 243.664,109.78 241.669,114.072C239.704,118.299 235.067,122.17 226.18,125.535C221.977,127.126 215.599,126.701 208.06,125.002C190.92,121.139 167.609,110.797 150.639,104.418C126.917,95.502 109.288,90.974 97.805,85.582C90.707,82.249 85.917,78.559 83.391,73.412C81.699,69.963 81.014,65.851 81.373,60.721C82.156,49.546 89.443,45.006 99.418,41.753C108.975,38.637 121.043,36.702 131.819,30.668ZM132.674,32.195C121.792,38.289 109.613,40.27 99.961,43.417C90.727,46.428 83.843,50.499 83.119,60.843C82.785,65.61 83.39,69.436 84.962,72.641C87.333,77.473 91.885,80.869 98.549,83.998C110.004,89.377 127.591,93.886 151.255,102.78C165.755,108.23 184.896,116.59 200.828,121.291C211.232,124.361 220.23,125.916 225.561,123.898C233.843,120.762 238.251,117.274 240.082,113.334C241.883,109.459 241.136,105.204 239.322,100.587C235.479,90.803 226.896,79.489 225.093,66.875C221.958,44.95 213.486,31.124 201.634,24C183.808,13.284 158.496,17.736 132.674,32.195Z" style="fill:white;"/>
    <path d="M176.778,26.831C177.192,26.583 177.73,26.717 177.978,27.131C178.227,27.545 178.093,28.083 177.679,28.332C175.775,29.474 173.823,31.876 172.107,34.753C169.473,39.166 167.417,44.708 167.091,48.805C166.984,50.156 167.061,51.338 167.405,52.239C167.68,52.956 168.134,53.47 168.844,53.656C169.698,53.879 171.729,54.022 172.946,53.672C174.138,53.329 175.737,52.57 176.129,52.135C178.39,49.625 179.322,46.712 180.445,43.855C182.265,39.228 184.507,34.717 192.553,31.902C193.008,31.742 193.508,31.983 193.667,32.438C193.827,32.894 193.586,33.394 193.131,33.553C185.775,36.128 183.737,40.265 182.074,44.495C180.876,47.543 179.841,50.628 177.43,53.306C176.931,53.86 174.945,54.918 173.43,55.354C171.939,55.783 169.448,55.622 168.401,55.349C167.129,55.017 166.262,54.15 165.771,52.864C165.349,51.762 165.215,50.32 165.347,48.666C165.69,44.351 167.83,38.504 170.604,33.856C172.492,30.692 174.684,28.088 176.778,26.831Z" style="fill:white;"/>
    <path d="M193.478,33.556C193.017,33.7 192.526,33.442 192.382,32.981C192.239,32.52 192.496,32.029 192.957,31.886C194.113,31.526 196.851,31.443 199.537,32.196C202.291,32.968 204.956,34.608 205.934,37.529C206.716,39.867 207.751,47.771 209.973,53.485C210.672,55.281 211.482,56.854 212.461,57.921C213.286,58.819 214.224,59.339 215.34,59.167C215.938,59.075 216.359,58.875 216.605,58.523C216.872,58.141 216.935,57.624 216.905,57.015C216.854,55.975 216.503,54.71 216.001,53.302C214.795,49.92 212.72,45.774 211.339,41.891C210.373,39.172 209.751,36.572 209.921,34.42C209.959,33.938 210.38,33.578 210.862,33.616C211.343,33.654 211.703,34.076 211.665,34.557C211.486,36.841 212.338,39.667 213.464,42.585C215.25,47.216 217.742,52.057 218.451,55.447C218.813,57.176 218.698,58.582 218.04,59.525C217.556,60.218 216.783,60.716 215.607,60.897C213.158,61.274 211.145,59.643 209.61,56.872C206.493,51.248 205.197,40.841 204.275,38.085C203.489,35.737 201.279,34.501 199.065,33.881C196.783,33.241 194.459,33.251 193.478,33.556Z" style="fill:white;"/>
    <path d="M177.727,26.751C178.036,27.122 177.986,27.674 177.615,27.983C177.244,28.293 176.692,28.242 176.383,27.871C174.115,25.151 170.329,25.065 166.148,25.953C159.369,27.394 151.578,31.507 146.703,33.096C145.331,33.544 144.167,33.795 143.291,33.782C142.498,33.77 141.892,33.547 141.471,33.161C140.834,32.574 140.522,31.484 141.026,29.688C141.156,29.223 141.64,28.952 142.105,29.082C142.57,29.212 142.841,29.696 142.711,30.161C142.559,30.701 142.491,31.137 142.52,31.483C142.534,31.651 142.563,31.786 142.656,31.872C142.867,32.066 143.218,32.055 143.658,32.02C144.344,31.965 145.189,31.75 146.161,31.433C151.079,29.829 158.945,25.695 165.784,24.241C170.684,23.2 175.069,23.562 177.727,26.751Z" style="fill:white;"/>
</svg>
